<?xml version="1.0" encoding="utf-8"?>
<svg version="1.1" id="Laag_1" xmlns="http://www.w3.org/2000/svg" xmlns:xlink="http://www.w3.org/1999/xlink" x="0px" y="0px"
	 viewBox="0 0 100.2 91.4" style="enable-background:new 0 0 100.2 91.4;" xml:space="preserve">
<style type="text/css">
	.st0{fill:#fff;}
</style>
<g>
	<path class="st0" d="M85.4,84v-9.1h3.2c1.6,0,2.9-1.3,2.9-2.9V39.7c0-1.6-1.3-2.9-2.9-2.9H46.7c-1.6,0-2.9,1.3-2.9,2.9V72
		c0,1.6,1.3,2.9,2.9,2.9h26.1l0,0L82.9,85c0.4,0.4,1,0.5,1.6,0.3C85,85.1,85.4,84.6,85.4,84z M84,72c-0.7,0-1.4,0.6-1.5,1.3
		c0,0.1,0,3.5,0,5.9v1.3l-8.2-8.2c-0.3-0.2-0.6-0.4-0.9-0.4H46.6V39.6h0.1h41.9v0.1V72h-0.1H84z"/>
	<path class="st0" d="M67.6,53.9c-1.1,0-1.9,0.9-1.9,1.9s0.9,1.9,1.9,1.9s1.9-0.9,1.9-1.9S68.7,53.9,67.6,53.9z"/>
	<path class="st0" d="M60.5,16.1H20.7c-0.8,0-1.4,0.6-1.4,1.4s0.6,1.4,1.4,1.4h39.8c0.8,0,1.4-0.6,1.4-1.4S61.3,16.1,60.5,16.1z"/>
	<path class="st0" d="M60.5,26.4H20.7c-0.8,0-1.4,0.6-1.4,1.4s0.6,1.4,1.4,1.4h39.8c0.8,0,1.4-0.6,1.4-1.4S61.3,26.4,60.5,26.4z"/>
	<path class="st0" d="M34.4,36.8H20.7c-0.8,0-1.4,0.6-1.4,1.4s0.6,1.4,1.4,1.4h13.6c0.8,0,1.4-0.6,1.4-1.4
		C35.8,37.5,35.1,36.8,34.4,36.8z"/>
	<path class="st0" d="M57.5,53.9c-1.1,0-1.9,0.9-1.9,1.9s0.9,1.9,1.9,1.9c1.1,0,1.9-0.9,1.9-1.9S58.6,53.9,57.5,53.9z"/>
	<path class="st0" d="M77.7,53.9c-1.1,0-1.9,0.9-1.9,1.9s0.9,1.9,1.9,1.9s1.9-0.9,1.9-1.9S78.8,53.9,77.7,53.9z"/>
	<path class="st0" d="M18,64.7c0.5,0.2,1.2,0.1,1.6-0.3l14.1-14.1h7.7v-2.8h-0.8c-2.8,0-7.4,0-7.6,0c-0.3,0-0.6,0.2-0.9,0.4L20,60
		v-1.5c0-3.6,0-9.5,0-9.7c-0.1-0.7-0.7-1.3-1.4-1.3h-7V8.7h57.9v25.7h2.8V8.9c0-1.6-1.3-3-3-3H11.8c-1.7,0-3,1.3-3,3v38.5
		c0,1.6,1.3,3,3,3h5.4v13.1C17.2,64,17.5,64.5,18,64.7z"/>
</g>
</svg>
